<?xml version="1.0" encoding="iso-8859-1"?>
<!-- Generator: Adobe Illustrator 16.0.0, SVG Export Plug-In . SVG Version: 6.00 Build 0)  -->
<!DOCTYPE svg PUBLIC "-//W3C//DTD SVG 1.1//EN" "http://www.w3.org/Graphics/SVG/1.1/DTD/svg11.dtd">
<svg version="1.1" id="Layer_1" xmlns="http://www.w3.org/2000/svg" xmlns:xlink="http://www.w3.org/1999/xlink" x="0px" y="0px"
	 width="55px" height="55px" viewBox="0 0 55 55" style="enable-background:new 0 0 55 55;" xml:space="preserve">
<style type="text/css">
<![CDATA[
	.st0{fill:#FFE40F;}
]]>
</style>
<g>
	<path class="st0" d="M53.5,28V0H1.6v28c0,0-0.1,0.1-0.1,0.1l0.1,0.1V55h51.8V28L53.5,28C53.5,28.1,53.5,28,53.5,28z M49.3,50.8H5.8
		v-21c6.3-6,14.4-9.4,22.4-9.4c8.3,0,15.8,4.9,21,9.5V50.8z M49.3,24.5c-5.6-4.3-12.9-8.3-21-8.3c-7.9,0-15.8,2.9-22.4,8v-20h43.4
		V24.5z"/>
	<path class="st0" d="M16.3,36c0,6.2,5,11.3,11.2,11.3c6.2,0,11.2-5.1,11.2-11.3s-5-11.3-11.2-11.3C21.4,24.7,16.3,29.7,16.3,36z
		 M34.5,36c0,3.9-3.1,7.1-7,7.1c-3.9,0-7-3.2-7-7.1c0-3.9,3.1-7.1,7-7.1C31.4,28.9,34.5,32.1,34.5,36z"/>
	<ellipse class="st0" cx="42.2" cy="11.3" rx="4.2" ry="4.2"/>
</g>
</svg>
