<?xml version="1.0" encoding="iso-8859-1"?>
<!-- Generator: Adobe Illustrator 16.0.0, SVG Export Plug-In . SVG Version: 6.00 Build 0)  -->
<!DOCTYPE svg PUBLIC "-//W3C//DTD SVG 1.1//EN" "http://www.w3.org/Graphics/SVG/1.1/DTD/svg11.dtd">
<svg version="1.1" id="Layer_1" xmlns="http://www.w3.org/2000/svg" xmlns:xlink="http://www.w3.org/1999/xlink" x="0px" y="0px"
	 width="55px" height="55px" viewBox="0 0 55 55" style="enable-background:new 0 0 55 55;" xml:space="preserve">
<style type="text/css">
<![CDATA[
	.st0{fill:#FFE40F;}
]]>
</style>
<g>
	<polygon class="st0" points="24.8,35.6 16.9,28.8 14.1,32 26,42.3 39.9,17.3 36.2,15.2 	"/>
	<polygon class="st0" points="50.8,50.3 43.7,50.3 43.7,54.6 55,54.6 55,44.6 50.8,44.6 	"/>
	<rect x="21.2" y="50.3" class="st0" width="11.3" height="4.3"/>
	<polygon class="st0" points="4.2,44.6 0,44.6 0,54.6 9.9,54.6 9.9,50.3 4.2,50.3 	"/>
	<rect y="21.9" class="st0" width="4.2" height="11.4"/>
	<polygon class="st0" points="0,12 4.2,12 4.2,4.8 9.9,4.8 9.9,0.6 0,0.6 	"/>
	<rect x="21.2" y="0.6" class="st0" width="11.3" height="4.3"/>
	<polygon class="st0" points="43.7,0.6 43.7,4.8 50.8,4.8 50.8,12 55,12 55,0.6 	"/>
	<rect x="50.8" y="21.9" class="st0" width="4.2" height="11.4"/>
</g>
</svg>
