<?xml version="1.0" encoding="iso-8859-1"?>
<!-- Generator: Adobe Illustrator 16.0.0, SVG Export Plug-In . SVG Version: 6.00 Build 0)  -->
<!DOCTYPE svg PUBLIC "-//W3C//DTD SVG 1.1//EN" "http://www.w3.org/Graphics/SVG/1.1/DTD/svg11.dtd">
<svg version="1.1" id="Layer_1" xmlns="http://www.w3.org/2000/svg" xmlns:xlink="http://www.w3.org/1999/xlink" x="0px" y="0px"
	 width="83px" height="83px" viewBox="0 0 83 83" style="enable-background:new 0 0 83 83;" xml:space="preserve">
<style type="text/css">
<![CDATA[
	.st0{fill:#FFE40F;}
	.st1{fill:none;stroke:#010101;stroke-width:3;stroke-miterlimit:10;}
	.st2{fill:none;stroke:#010101;stroke-width:3;stroke-linejoin:bevel;stroke-miterlimit:10;}
	.st3{fill:#010101;}
	.st4{fill:none;stroke:#010101;stroke-width:3;stroke-linecap:round;stroke-linejoin:bevel;stroke-miterlimit:10;}
	.st5{fill:none;stroke:#010101;stroke-width:3;stroke-linecap:round;stroke-miterlimit:10;}
]]>
</style>
<g>
	<polygon points="49.9,36.2 47.9,34.8 36.7,34.8 46.7,38.3 52.6,46.9 	"/>
	<path d="M82.7,33.8l-1.2-3.8l-26.2-3.8L43.5,2.5l-4,0L27.7,26.1L1.5,29.9l-1.2,3.8l19,18.4l-4.5,26l3.3,2.4l23.5-12.3L65,80.5
		l3.3-2.4l-4.5-26L82.7,33.8z M76.3,33.7L61.6,48l-5.7-17.2L76.3,33.7z M41.5,8.6L50.6,27H32.3L41.5,8.6z M6.7,33.7l20.1-2.9
		l-5.5,17L6.7,33.7z M20,74.4l3.4-19.6l14.4,10.3L20,74.4z M41.5,62.3L25.1,50.6l6.1-19.1h20.1l6.3,18.9L41.5,62.3z M45.2,65.1
		l14.4-10.5L63,74.4L45.2,65.1z"/>
</g>
</svg>
