<?xml version="1.0" encoding="iso-8859-1"?>
<!-- Generator: Adobe Illustrator 16.0.0, SVG Export Plug-In . SVG Version: 6.00 Build 0)  -->
<!DOCTYPE svg PUBLIC "-//W3C//DTD SVG 1.1//EN" "http://www.w3.org/Graphics/SVG/1.1/DTD/svg11.dtd">
<svg version="1.1" id="Layer_1" xmlns="http://www.w3.org/2000/svg" xmlns:xlink="http://www.w3.org/1999/xlink" x="0px" y="0px"
	 width="55px" height="55px" viewBox="0 0 55 55" style="enable-background:new 0 0 55 55;" xml:space="preserve">
<style type="text/css">
<![CDATA[
	.st0{fill:#FFE40F;}
]]>
</style>
<g>
	<path class="st0" d="M4.1,19.6h33.5v3.1c0,0.9,0.5,1.7,1.3,2.1c0.3,0.2,0.7,0.2,1,0.2c0.5,0,1-0.2,1.5-0.5l11.7-9.4
		c0.5-0.4,0.9-1.1,0.9-1.8c0-0.7-0.2-1.3-0.7-1.8l-11.7-11C40.9,0,39.9-0.2,39,0.2c-0.9,0.4-1.4,1.2-1.4,2.2v3.1H4.1
		c-1.3,0-2.3,1.1-2.3,2.4v9.4C1.8,18.6,2.8,19.6,4.1,19.6z M6.5,10.2H40c1.3,0,2.3-1.1,2.3-2.4V7.8l5.8,5.4l-5.8,4.7v-0.6
		c0-1.3-1-2.4-2.3-2.4H6.5V10.2z"/>
	<path class="st0" d="M50.9,35.4H17.4v-3.1c0-0.9-0.6-1.8-1.4-2.2c-0.9-0.4-1.8-0.2-2.5,0.4l-11.7,11C1.2,42,1,42.6,1,43.3
		c0,0.7,0.3,1.3,0.9,1.8l11.7,9.4C14,54.8,14.5,55,15,55c0.3,0,0.7-0.1,1-0.2c0.8-0.4,1.3-1.2,1.3-2.1v-3.1h33.5
		c1.3,0,2.3-1.1,2.3-2.4v-9.4C53.2,36.4,52.2,35.4,50.9,35.4z M48.5,44.8H15c-1.3,0-2.3,1.1-2.3,2.4v0.6l-5.8-4.7l5.8-5.4v0.1
		c0,1.3,1,2.4,2.3,2.4h33.5V44.8z"/>
</g>
</svg>
