<?xml version="1.0" encoding="iso-8859-1"?>
<!-- Generator: Adobe Illustrator 16.0.0, SVG Export Plug-In . SVG Version: 6.00 Build 0)  -->
<!DOCTYPE svg PUBLIC "-//W3C//DTD SVG 1.1//EN" "http://www.w3.org/Graphics/SVG/1.1/DTD/svg11.dtd">
<svg version="1.1" id="Layer_1" xmlns="http://www.w3.org/2000/svg" xmlns:xlink="http://www.w3.org/1999/xlink" x="0px" y="0px"
	 width="83px" height="83px" viewBox="0 0 83 83" style="enable-background:new 0 0 83 83;" xml:space="preserve">
<style type="text/css">
<![CDATA[
	.st0{fill:#FFE40F;}
	.st1{fill:none;stroke:#010101;stroke-width:3;stroke-miterlimit:10;}
	.st2{fill:none;stroke:#010101;stroke-width:3;stroke-linejoin:bevel;stroke-miterlimit:10;}
	.st3{fill:#010101;}
	.st4{fill:none;stroke:#010101;stroke-width:3;stroke-linecap:round;stroke-linejoin:bevel;stroke-miterlimit:10;}
	.st5{fill:none;stroke:#010101;stroke-width:3;stroke-linecap:round;stroke-miterlimit:10;}
]]>
</style>
<g>
	<path d="M65,33.7l-0.2,0V16.6L44.8,0.3h-4.9L19.6,16.6v17l-0.1,0L4,58.4l1.9,3.5h15.5l0,0l4.1,5.7h33.4l4.1-5.7l0,0h14l2-3.4
		L65,33.7z M19.1,57.3H10l9.1-14.6V57.3z M60.4,57.8L56.6,63H27.9l-3.8-5.2v-39l17.4-14h1.7l17.2,14V57.8z M65.3,57.3V43.4l7.8,13.9
		H65.3z"/>
	<polygon points="26,71.2 41.1,82.7 43.4,82.7 58.5,71.1 42.2,77.9 	"/>
	<path d="M33,29.6c0,5.1,4.2,9.2,9.3,9.2c5.1,0,9.3-4.1,9.3-9.2s-4.2-9.2-9.3-9.2C37.1,20.4,33,24.5,33,29.6z M46.9,29.6
		c0,2.6-2.1,4.7-4.7,4.7c-2.6,0-4.7-2.1-4.7-4.7s2.1-4.7,4.7-4.7C44.8,24.9,46.9,27,46.9,29.6z"/>
</g>
</svg>
