<?xml version="1.0" encoding="iso-8859-1"?>
<!-- Generator: Adobe Illustrator 16.0.0, SVG Export Plug-In . SVG Version: 6.00 Build 0)  -->
<!DOCTYPE svg PUBLIC "-//W3C//DTD SVG 1.1//EN" "http://www.w3.org/Graphics/SVG/1.1/DTD/svg11.dtd">
<svg version="1.1" id="Layer_1" xmlns="http://www.w3.org/2000/svg" xmlns:xlink="http://www.w3.org/1999/xlink" x="0px" y="0px"
	 width="55px" height="55px" viewBox="0 0 55 55" style="enable-background:new 0 0 55 55;" xml:space="preserve">
<style type="text/css">
<![CDATA[
	.st0{fill:#FFE40F;}
]]>
</style>
<g>
	<path class="st0" d="M53,50.9H4.1V2c0-1.1-0.9-2-2-2C0.9,0,0,0.9,0,2v53h53c1.1,0,2-0.9,2-2S54.1,50.9,53,50.9z"/>
	<path class="st0" d="M10.2,48.9c1.1,0,2-0.9,2-2V26.2l11.4-8.4l9,19.6h14.9l2.2,4.9c0.5,1,1.7,1.5,2.7,1s1.5-1.7,1-2.7l-3.3-7.3
		h-15l-10-21.8L8.1,24.1v22.8C8.1,48,9.1,48.9,10.2,48.9z"/>
</g>
</svg>
